<?xml version="1.0" encoding="UTF-8"?>
<svg id="Layer_1" data-name="Layer 1" xmlns="http://www.w3.org/2000/svg" viewBox="0 0 143.9 136.76">
  <defs>
    <style>
      .cls-1 {
        fill: none;
        stroke: #231f20;
        stroke-miterlimit: 10;
      }
    </style>
  </defs>
  <line class="cls-1" x1="92.3" y1="47.8" x2="92.3" y2="47.7"/>
  <line class="cls-1" x1="123.06" y1="136.18" x2="122.97" y2="136.24"/>
  <line class="cls-1" x1="133.27" y1="130.29" x2="133.18" y2="130.34"/>
  <line class="cls-1" x1="102.61" y1="18.26" x2="102.51" y2="18.21"/>
  <line class="cls-1" x1="92.4" y1="12.37" x2="92.3" y2="12.31"/>
  <line class="cls-1" x1="82.18" y1="6.47" x2="82.09" y2="6.42"/>
  <line class="cls-1" x1="92.39" y1="47.75" x2="92.3" y2="47.7"/>
  <line class="cls-1" x1="82.18" y1="53.64" x2="82.09" y2="53.59"/>
  <line class="cls-1" x1="61.74" y1="53.64" x2="61.66" y2="53.59"/>
  <polyline class="cls-1" points="143.4 41.9 71.91 83.08 .54 41.85"/>
  <polygon class="cls-1" points="101.31 124.15 101.37 97.6 71.91 114.09 42.24 97.05 42.24 97.54 42.3 123.88 20.69 136.17 20.65 136.19 11.61 130.96 .5 124.34 .51 112.47 .54 42.31 .54 41.87 20.89 30.06 21.3 30.29 31.1 35.95 31.1 24.16 71.96 .58 143.36 41.9 143.4 124.44 143.36 124.46 122.96 136.19 101.31 124.15"/>
  <polyline class="cls-1" points="31.04 24.11 51.54 35.96 71.97 23.05 102.49 41.96 71.95 59.53 31.1 35.94"/>
  <line class="cls-1" x1="31.1" y1="36.04" x2="31.1" y2="35.94"/>
  <line class="cls-1" x1="71.91" y1="83.08" x2="71.91" y2="114.09"/>
  <polyline class="cls-1" points="42.24 97.05 20.87 84.56 20.87 84.56 20.65 136.13"/>
  <polyline class="cls-1" points="101.37 97.54 122.93 84.56 122.93 84.56 122.97 136.24"/>
  <line class="cls-1" x1="71.97" y1="23.05" x2="71.97" y2="59.68"/>
  <line class="cls-1" x1="51.54" y1="35.96" x2="51.54" y2="47.75"/>
  <line class="cls-1" x1="31.1" y1="24.16" x2="51.54" y2="35.96"/>
</svg>